<svg xmlns="http://www.w3.org/2000/svg" width="180" height="37.823" viewBox="0 0 180 37.823"><defs><style>.a{fill:#1d252c;}.b{fill:#e56919;}</style></defs><g transform="translate(-4 -5.8)"><path class="a" d="M105.111,35.5a9.138,9.138,0,0,1-5.864-2.061l-.7-.581L97.709,34.8l-4.209.029V5.8h5.747V16.627l1.045-.639a9.187,9.187,0,0,1,4.819-1.335,10.321,10.321,0,0,1,7.4,2.9,10.558,10.558,0,0,1,2.874,7.489C115.387,31.228,111.178,35.5,105.111,35.5Zm-.958-15.849a5.276,5.276,0,0,0-5.341,5.428,5.342,5.342,0,1,0,10.682,0A5.276,5.276,0,0,0,104.153,19.646Z" transform="translate(-63.52)"/><path class="a" d="M482.924,56.139,475,35.5h5.864l4.7,13.295L490.152,35.5h5.689l-7.808,20.639Z" transform="translate(-334.28 -21.079)"/><path class="b" d="M388,17.366V5.9h5.747v5.718h5.747v5.747Z" transform="translate(-272.534 -0.071)"/><path class="a" d="M394.805,70.262c-4.209,0-6.705-2.525-6.705-6.734V55.4h5.718v6.909a2.956,2.956,0,0,0,3.164,3.106h1.887l.058,4.877h-4.122Z" transform="translate(-272.605 -35.202)"/><rect class="b" width="5.747" height="5.747" transform="translate(130.967 5.829)"/><rect class="a" width="5.835" height="20.61" transform="translate(130.909 14.421)"/><path class="a" d="M565.643,49.511a4.92,4.92,0,0,1-3.919,1.974,4.863,4.863,0,0,1-4.877-4.848H572.2l.029-.29c.029-.348.058-.668.058-.987v-.087c-.029-5.835-4.5-10.073-10.624-10.073S551.1,39.554,551.1,45.534c0,6.009,4.441,10.363,10.566,10.363a10.258,10.258,0,0,0,9.753-6.009l.145-.406h-5.922ZM561.7,39.554a4.721,4.721,0,0,1,4.7,4.209h-9.376A4.672,4.672,0,0,1,561.7,39.554Z" transform="translate(-388.29 -20.866)"/><path class="a" d="M230.443,49.511a4.92,4.92,0,0,1-3.919,1.974,4.863,4.863,0,0,1-4.877-4.848H237l.029-.29c.029-.348.058-.668.058-.987v-.087c-.029-5.835-4.5-10.073-10.624-10.073S215.9,39.554,215.9,45.534c0,6.009,4.441,10.363,10.566,10.363a10.258,10.258,0,0,0,9.753-6.009l.145-.406h-5.922ZM226.5,39.554a4.721,4.721,0,0,1,4.7,4.209h-9.376A4.672,4.672,0,0,1,226.5,39.554Z" transform="translate(-150.391 -20.866)"/><g transform="translate(51.721 5.829)"><rect class="b" width="5.747" height="5.747" transform="translate(4.296 0)"/><path class="a" d="M172.7,35.4V56.648h0a3.041,3.041,0,0,1-3.019,3.048H168.4v4.935h2.99a7.061,7.061,0,0,0,7.054-7.054h0V35.4Z" transform="translate(-168.4 -26.837)"/></g><g transform="translate(4 14.363)"><path class="b" d="M10.154,48.246a6,6,0,0,1-.61-2.642,5.209,5.209,0,0,1,5.312-5.457,5.487,5.487,0,0,1,2.7.7l3.716-3.716A11.572,11.572,0,0,0,14.856,35.3C8.557,35.3,4,39.654,4,45.6a10.045,10.045,0,0,0,2.293,6.531Z" transform="translate(-4 -35.3)"/><path class="a" d="M30.347,52.132a5.781,5.781,0,0,1,.61,2.7,5.458,5.458,0,0,1-1.509,3.919,5.255,5.255,0,0,1-3.8,1.538h0a5.424,5.424,0,0,1-2.758-.726L19.2,63.278a11.685,11.685,0,0,0,6.444,1.858c6.3,0,10.856-4.325,10.856-10.276a9.99,9.99,0,0,0-2.322-6.56Z" transform="translate(-14.788 -44.526)"/></g><path class="a" d="M321.606,47.253h-5.689c-.029.116-.087.232-.116.348h0a4.886,4.886,0,0,1-4.615,3.077c-2.932,0-5.08-2.293-5.08-5.457a5.077,5.077,0,0,1,5.08-5.4,5.151,5.151,0,0,1,3.222,1.1,4.328,4.328,0,0,1,.639.639,4.542,4.542,0,0,1,.668.987,1.685,1.685,0,0,1,.145.406h5.689a9.235,9.235,0,0,0-.581-2,.028.028,0,0,0-.029-.029c-.145-.319-.232-.523-.232-.523h0c-1.655-3.483-5.109-5.6-9.492-5.6-6.415,0-10.914,4.3-10.914,10.421,0,6.1,4.586,10.508,10.885,10.508h.145a10.209,10.209,0,0,0,9.869-6.851,12.225,12.225,0,0,0,.348-1.219V47.63C321.577,47.485,321.577,47.369,321.606,47.253Z" transform="translate(-210.291 -20.582)"/></g></svg>